<?xml version="1.0" standalone="no"?>
<!DOCTYPE svg PUBLIC "-//W3C//DTD SVG 20010904//EN"
 "http://www.w3.org/TR/2001/REC-SVG-20010904/DTD/svg10.dtd">
<svg version="1.0" xmlns="http://www.w3.org/2000/svg"
 width="700.000000pt" height="700.000000pt" viewBox="0 0 700.000000 700.000000"
 preserveAspectRatio="xMidYMid meet">
<metadata>
Created by potrace 1.14, written by Peter Selinger 2001-2017
</metadata>
<g transform="translate(0.000000,700.000000) scale(0.100000,-0.100000)"
fill="#000000" stroke="none">
<path d="M3417 6344 c-1 -1 -52 -4 -114 -8 -61 -4 -120 -8 -131 -11 -10 -2
-43 -6 -73 -10 -30 -4 -76 -11 -104 -16 -27 -5 -66 -12 -85 -15 -73 -12 -350
-97 -460 -141 -237 -95 -481 -235 -690 -395 -522 -399 -898 -995 -1040 -1647
-16 -71 -53 -330 -59 -411 -6 -79 -5 -2281 1 -2330 17 -132 74 -272 158 -385
43 -58 159 -168 199 -188 14 -8 46 -25 71 -39 121 -68 239 -90 490 -92 279 -2
381 14 522 84 238 118 404 346 442 606 11 75 8 1045 -3 1115 -37 229 -181 441
-380 559 -87 52 -214 97 -301 106 -36 4 -220 8 -410 8 -190 0 -348 4 -351 9
-8 11 -4 551 4 592 4 17 9 55 12 85 25 235 122 541 250 787 380 731 1117 1225
1925 1290 467 37 908 -50 1316 -261 731 -379 1220 -1109 1290 -1926 4 -47 8
-195 8 -330 l1 -245 -370 -1 c-247 -1 -391 -5 -434 -13 -249 -48 -465 -216
-579 -453 -13 -26 -34 -89 -47 -140 -22 -87 -24 -113 -25 -393 -3 -637 -1
-760 15 -835 3 -14 7 -34 9 -45 9 -45 52 -144 90 -209 126 -211 353 -356 596
-383 83 -9 419 -8 485 1 189 27 350 109 474 242 117 124 178 245 210 409 15
82 17 190 16 1200 -2 976 -6 1241 -21 1320 -2 11 -6 43 -9 70 -10 89 -55 294
-92 413 -135 447 -377 853 -705 1183 -134 134 -167 163 -313 273 -439 329
-937 517 -1485 561 -74 6 -298 13 -303 9z m-1517 -3681 c109 -54 186 -149 206
-253 4 -19 7 -249 8 -510 1 -524 -2 -554 -59 -639 -44 -65 -125 -127 -193
-148 -47 -14 -95 -17 -267 -17 -195 1 -214 3 -270 24 -83 32 -173 122 -205
205 l-23 60 -1 657 -1 656 370 -1 370 -2 65 -32z m4004 -603 c0 -349 -3 -652
-6 -673 -15 -97 -99 -206 -192 -252 -74 -36 -120 -42 -336 -40 -176 2 -201 4
-253 25 -98 37 -187 138 -223 250 -13 43 -11 975 3 1042 20 100 80 181 171
235 79 47 113 50 487 49 l349 -1 0 -635z"/>
</g>
</svg>
